<svg width="39" height="39" viewBox="0 0 39 39" fill="none" xmlns="http://www.w3.org/2000/svg">
<path d="M16.0724 0.556115C15.6153 0.0762323 14.9298 -0.10658 14.2899 0.0609979C13.6501 0.228576 13.155 0.738928 12.9874 1.37877L11.7839 6.13951L7.06122 4.80651C6.42138 4.62369 5.73583 4.80651 5.27118 5.27115C4.80654 5.7358 4.62372 6.42135 4.80654 7.06119L6.13954 11.7838L1.3788 12.995C0.738958 13.1549 0.236224 13.6577 0.0610284 14.2975C-0.114167 14.9374 0.0762628 15.6153 0.556146 16.0723L4.07529 19.5001L0.556146 22.9278C0.0762628 23.3848 -0.10655 24.0704 0.0610284 24.7102C0.228607 25.3501 0.738958 25.8452 1.3788 26.0128L6.13954 27.2163L4.80654 31.9389C4.62372 32.5788 4.80654 33.2643 5.27118 33.729C5.73583 34.1936 6.42138 34.3764 7.06122 34.1936L11.7839 32.8606L12.9874 37.6213C13.1474 38.2612 13.6501 38.7639 14.2899 38.9391C14.9298 39.1143 15.6077 38.9239 16.0724 38.4516L19.5001 34.9325L22.9278 38.4516C23.3925 38.9239 24.0704 39.1143 24.7102 38.9391C25.3501 38.7639 25.8452 38.2612 26.0128 37.6213L27.2163 32.8606L31.939 34.1936C32.5788 34.3764 33.2643 34.1936 33.729 33.729C34.1936 33.2643 34.3765 32.5788 34.1936 31.9389L32.8606 27.2163L37.6214 26.0128C38.2612 25.8528 38.764 25.3501 38.9392 24.7102C39.1143 24.0704 38.9239 23.3924 38.4517 22.9278L34.9325 19.5001L38.4517 16.0723C38.9239 15.6077 39.1143 14.9297 38.9392 14.2899C38.764 13.6501 38.2612 13.1549 37.6214 12.9874L32.8606 11.7838L34.1936 7.06119C34.3765 6.42135 34.1936 5.7358 33.729 5.27115C33.2643 4.80651 32.5788 4.62369 31.939 4.80651L27.2163 6.13951L26.0052 1.37877C25.8452 0.738928 25.3425 0.236193 24.7026 0.0609979C24.0628 -0.114197 23.3849 0.0762323 22.9278 0.556115L19.5001 4.07526L16.0724 0.556115Z" fill="#FF682A"/>
</svg>
