<svg width="31" height="36" viewBox="0 0 31 36" fill="none" xmlns="http://www.w3.org/2000/svg">
<path d="M15.5 18C20.3922 18 24.3571 13.9711 24.3571 9C24.3571 4.02891 20.3922 0 15.5 0C10.6078 0 6.64286 4.02891 6.64286 9C6.64286 13.9711 10.6078 18 15.5 18ZM22.129 20.2922L18.8214 33.75L16.6071 24.1875L18.8214 20.25H12.1786L14.3929 24.1875L12.1786 33.75L8.87098 20.2922C3.93728 20.5312 0 24.6305 0 29.7V32.625C0 34.4883 1.48772 36 3.32143 36H27.6786C29.5123 36 31 34.4883 31 32.625V29.7C31 24.6305 27.0627 20.5312 22.129 20.2922Z" fill="#FF682A"/>
</svg>
