<svg width="40" height="28" viewBox="0 0 40 28" fill="none" xmlns="http://www.w3.org/2000/svg">
<path d="M6 4V18C6 20.2062 7.79375 22 10 22H36C38.2062 22 40 20.2062 40 18V4C40 1.79375 38.2062 0 36 0H10C7.79375 0 6 1.79375 6 4ZM10 14C12.2063 14 14 15.7937 14 18H10V14ZM14 4C14 6.20625 12.2063 8 10 8V4H14ZM36 14V18H32C32 15.7937 33.7938 14 36 14ZM32 4H36V8C33.7938 8 32 6.20625 32 4ZM18 11C18 9.67392 18.5268 8.40215 19.4645 7.46447C20.4021 6.52678 21.6739 6 23 6C24.3261 6 25.5979 6.52678 26.5355 7.46447C27.4732 8.40215 28 9.67392 28 11C28 12.3261 27.4732 13.5979 26.5355 14.5355C25.5979 15.4732 24.3261 16 23 16C21.6739 16 20.4021 15.4732 19.4645 14.5355C18.5268 13.5979 18 12.3261 18 11ZM3 5.5C3 4.66875 2.33125 4 1.5 4C0.66875 4 0 4.66875 0 5.5V20.5C0 24.6437 3.35625 28 7.5 28H32.5C33.3312 28 34 27.3312 34 26.5C34 25.6688 33.3312 25 32.5 25H7.5C5.0125 25 3 22.9875 3 20.5V5.5Z" fill="#FF682A"/>
</svg>
