<svg width="39" height="33" viewBox="0 0 39 33" fill="none" xmlns="http://www.w3.org/2000/svg">
<path d="M10.3 6.1875C11.1155 6.1875 11.8977 5.86155 12.4744 5.28136C13.051 4.70117 13.375 3.91426 13.375 3.09375C13.375 2.27324 13.051 1.48633 12.4744 0.906138C11.8977 0.325948 11.1155 0 10.3 0C9.48446 0 8.70232 0.325948 8.12565 0.906138C7.54897 1.48633 7.225 2.27324 7.225 3.09375C7.225 3.91426 7.54897 4.70117 8.12565 5.28136C8.70232 5.86155 9.48446 6.1875 10.3 6.1875ZM9.7875 30.9375V22.6875H10.8125V30.9375C10.8125 32.0783 11.7286 33 12.8625 33C13.9964 33 14.9125 32.0783 14.9125 30.9375V12.375H18.5H22.6H23.625C24.7589 12.375 25.675 11.4533 25.675 10.3125C25.675 9.17168 24.7589 8.25 23.625 8.25H22.6V4.125H34.9V16.5H22.6V14.4375H18.5V17.5312C18.5 19.2393 19.8773 20.625 21.575 20.625H35.925C37.6227 20.625 39 19.2393 39 17.5312V3.09375C39 1.38574 37.6227 0 35.925 0H21.575C19.8773 0 18.5 1.38574 18.5 3.09375V8.25H13.5736H9.34547C7.18656 8.25 5.18781 9.39082 4.07313 11.2535L0.338282 17.5055C-0.244687 18.4787 0.0692191 19.7484 1.03656 20.335C2.00391 20.9215 3.26594 20.6057 3.84891 19.6324L5.6875 16.558V30.9375C5.6875 32.0783 6.60359 33 7.7375 33C8.87141 33 9.7875 32.0783 9.7875 30.9375Z" fill="#FF682A"/>
</svg>
