<svg width="28" height="33" viewBox="0 0 28 33" fill="none" xmlns="http://www.w3.org/2000/svg">
<path d="M8.88854 6.39729C10.0844 5.45061 11.5719 4.93752 13.0958 4.93752H16.2604C18.2365 4.93752 19.8333 6.52014 19.8333 8.47854C19.8333 9.30959 19.5417 10.0973 19.024 10.7188H2.33333C1.04271 10.7188 0 11.7522 0 13.0313C0 14.3104 1.04271 15.3438 2.33333 15.3438H11.3385L7.64896 17.4322C7.525 17.5045 7.40104 17.5768 7.27708 17.6563H2.33333C1.04271 17.6563 0 18.6897 0 19.9688C0 21.2479 1.04271 22.2813 2.33333 22.2813H3.81354C3.60937 22.9967 3.5 23.7555 3.5 24.5215C3.5 29.0309 7.18958 32.6875 11.7396 32.6875H14.9042C17.4927 32.6875 20.0083 31.8131 22.0281 30.2088L22.4583 29.8692C23.4646 29.0742 23.625 27.6145 22.8229 26.6172C22.0208 25.6199 20.5479 25.461 19.5417 26.2559L19.1115 26.5955C17.9156 27.5422 16.4354 28.0553 14.9042 28.0553H11.7396C9.76354 28.0553 8.16667 26.4727 8.16667 24.5143C8.16667 23.6832 8.45833 22.8955 8.97604 22.274H25.6667C26.9573 22.274 28 21.2406 28 19.9615C28 18.6824 26.9573 17.649 25.6667 17.649H16.6615L20.351 15.5606C20.475 15.4883 20.599 15.416 20.7229 15.3365H25.6667C26.9573 15.3365 28 14.3031 28 13.024C28 11.7449 26.9573 10.7115 25.6667 10.7115H24.1865C24.3906 9.98889 24.5 9.23733 24.5 8.47131C24.5 3.96194 20.8104 0.305298 16.2604 0.305298H13.0958C10.5073 0.305298 7.99167 1.17971 5.97187 2.78401L5.54167 3.13088C4.53542 3.92581 4.375 5.38557 5.17708 6.38284C5.97917 7.3801 7.45208 7.53909 8.45833 6.74416L8.88854 6.40452V6.39729Z" fill="#FF682A"/>
</svg>
