<svg width="35" height="28" viewBox="0 0 35 28" fill="none" xmlns="http://www.w3.org/2000/svg">
<path d="M5.25 7C5.25 5.14348 5.9875 3.36301 7.30025 2.05025C8.61301 0.737498 10.3935 0 12.25 0C14.1065 0 15.887 0.737498 17.1997 2.05025C18.5125 3.36301 19.25 5.14348 19.25 7C19.25 8.85652 18.5125 10.637 17.1997 11.9497C15.887 13.2625 14.1065 14 12.25 14C10.3935 14 8.61301 13.2625 7.30025 11.9497C5.9875 10.637 5.25 8.85652 5.25 7ZM0 26.3758C0 20.9891 4.36406 16.625 9.75078 16.625H14.7492C20.1359 16.625 24.5 20.9891 24.5 26.3758C24.5 27.2727 23.7727 28 22.8758 28H1.62422C0.727344 28 0 27.2727 0 26.3758ZM34.1797 9.67969L27.1797 16.6797C26.6656 17.1938 25.8344 17.1938 25.3258 16.6797L21.8258 13.1797C21.3117 12.6656 21.3117 11.8344 21.8258 11.3258C22.3398 10.8172 23.1711 10.8117 23.6797 11.3258L26.25 13.8961L32.3203 7.82031C32.8344 7.30625 33.6656 7.30625 34.1742 7.82031C34.6828 8.33438 34.6883 9.16562 34.1742 9.67422L34.1797 9.67969Z" fill="#FF682A"/>
</svg>
