<svg width="36" height="41" viewBox="0 0 36 41" fill="none" xmlns="http://www.w3.org/2000/svg">
<path d="M12.2143 1.92188C12.2143 0.856836 11.3545 0 10.2857 0C9.21696 0 8.35714 0.856836 8.35714 1.92188V5.125H5.14286C2.30625 5.125 0 7.42324 0 10.25V11.5312V15.375V35.875C0 38.7018 2.30625 41 5.14286 41H30.8571C33.6937 41 36 38.7018 36 35.875V15.375V11.5312V10.25C36 7.42324 33.6937 5.125 30.8571 5.125H27.6429V1.92188C27.6429 0.856836 26.783 0 25.7143 0C24.6455 0 23.7857 0.856836 23.7857 1.92188V5.125H12.2143V1.92188ZM3.85714 15.375H32.1429V35.875C32.1429 36.5797 31.5643 37.1562 30.8571 37.1562H5.14286C4.43571 37.1562 3.85714 36.5797 3.85714 35.875V15.375Z" fill="#FF682A"/>
</svg>
