<svg width="36" height="31" viewBox="0 0 36 31" fill="none" xmlns="http://www.w3.org/2000/svg">
<path d="M10.6945 0.685962C11.3906 1.31174 11.4469 2.37346 10.8211 3.06956L5.75859 8.69456C5.44922 9.03909 5.01328 9.24299 4.54922 9.25002C4.08515 9.25706 3.64219 9.08127 3.31172 8.75784L0.492186 5.94534C-0.16172 5.2844 -0.16172 4.21565 0.492186 3.55471C1.14609 2.89377 2.22187 2.89377 2.87578 3.55471L4.42969 5.10862L8.3039 0.805494C8.92969 0.1094 9.9914 0.0531497 10.6875 0.678931L10.6945 0.685962ZM10.6945 11.936C11.3906 12.5617 11.4469 13.6235 10.8211 14.3196L5.75859 19.9446C5.44922 20.2891 5.01328 20.493 4.54922 20.5C4.08515 20.5071 3.64219 20.3313 3.31172 20.0078L0.492186 17.1953C-0.168752 16.5344 -0.168752 15.4656 0.492186 14.8117C1.15312 14.1578 2.22187 14.1508 2.87578 14.8117L4.42969 16.3657L8.3039 12.0625C8.92969 11.3664 9.9914 11.3102 10.6875 11.936H10.6945ZM15.75 4.75002C15.75 3.50549 16.7555 2.50002 18 2.50002H33.75C34.9945 2.50002 36 3.50549 36 4.75002C36 5.99456 34.9945 7.00002 33.75 7.00002H18C16.7555 7.00002 15.75 5.99456 15.75 4.75002ZM15.75 16C15.75 14.7555 16.7555 13.75 18 13.75H33.75C34.9945 13.75 36 14.7555 36 16C36 17.2446 34.9945 18.25 33.75 18.25H18C16.7555 18.25 15.75 17.2446 15.75 16ZM11.25 27.25C11.25 26.0055 12.2555 25 13.5 25H33.75C34.9945 25 36 26.0055 36 27.25C36 28.4946 34.9945 29.5 33.75 29.5H13.5C12.2555 29.5 11.25 28.4946 11.25 27.25ZM3.375 23.875C4.2701 23.875 5.12855 24.2306 5.76148 24.8635C6.39442 25.4965 6.75 26.3549 6.75 27.25C6.75 28.1451 6.39442 29.0036 5.76148 29.6365C5.12855 30.2694 4.2701 30.625 3.375 30.625C2.47989 30.625 1.62145 30.2694 0.988513 29.6365C0.355578 29.0036 -1.546e-06 28.1451 -1.546e-06 27.25C-1.546e-06 26.3549 0.355578 25.4965 0.988513 24.8635C1.62145 24.2306 2.47989 23.875 3.375 23.875Z" fill="#FF682A"/>
</svg>
