<svg width="41" height="36" viewBox="0 0 41 36" fill="none" xmlns="http://www.w3.org/2000/svg">
<path d="M22.2083 1.6875V2.42578C22.6639 2.51016 23.1052 2.61563 23.5038 2.72109C24.4149 2.96016 24.9559 3.88828 24.7139 4.78828C24.4719 5.68828 23.5323 6.22266 22.6212 5.98359C21.8453 5.77969 21.1193 5.63906 20.4715 5.63203C19.9519 5.625 19.4252 5.75156 19.0906 5.94141C18.9411 6.03281 18.87 6.11016 18.8415 6.15234C18.8201 6.1875 18.7917 6.23672 18.7917 6.34922C18.7917 6.37031 18.7917 6.38438 18.7917 6.39141C18.8059 6.40547 18.8557 6.47578 19.0266 6.57422C19.4394 6.82031 20.0516 7.01016 20.9769 7.28437L21.041 7.30547C21.8311 7.5375 22.8846 7.85391 23.7387 8.38125C24.7139 8.98594 25.5965 9.99141 25.6179 11.5383C25.6392 13.1203 24.8064 14.2734 23.7174 14.9484C23.2405 15.2367 22.728 15.4406 22.2012 15.5672V16.3125C22.2012 17.2477 21.4396 18 20.4929 18C19.5462 18 18.7845 17.2477 18.7845 16.3125V15.5109C18.1083 15.3492 17.4891 15.1383 16.9623 14.9625C16.8128 14.9133 16.6705 14.8641 16.5352 14.8219C15.6384 14.5266 15.1543 13.5703 15.4533 12.6844C15.7523 11.7984 16.7203 11.3203 17.6172 11.6156C17.8023 11.6789 17.9731 11.7352 18.1368 11.7914C19.1049 12.1148 19.8024 12.3469 20.5498 12.375C21.1193 12.3961 21.6247 12.2625 21.9165 12.0867C22.0517 12.0023 22.1158 11.932 22.1443 11.8828C22.1727 11.8406 22.2083 11.7562 22.2012 11.5945V11.5805C22.2012 11.5102 22.2012 11.4328 21.9165 11.257C21.5108 11.0039 20.8986 10.807 19.9875 10.5328L19.8523 10.4906C19.0835 10.2656 18.0727 9.96328 17.2613 9.47813C16.3003 8.90859 15.375 7.93125 15.3679 6.37734C15.3608 4.76719 16.2861 3.66328 17.3396 3.04453C17.7951 2.77734 18.2863 2.59453 18.7774 2.46797V1.6875C18.7774 0.752344 19.5391 0 20.4858 0C21.4325 0 22.1941 0.752344 22.1941 1.6875H22.2083ZM40.4448 23.6461C41.3773 24.8977 41.1068 26.6555 39.8398 27.5766L30.8283 34.1367C29.1627 35.3461 27.1554 36 25.084 36H13.6667H2.27778C1.01788 36 0 34.9945 0 33.75V29.25C0 28.0055 1.01788 27 2.27778 27H4.89722L8.09323 24.4688C9.70903 23.1891 11.7163 22.5 13.7877 22.5H19.3611H20.5H25.0556C26.3155 22.5 27.3333 23.5055 27.3333 24.75C27.3333 25.9945 26.3155 27 25.0556 27H20.5H19.3611C18.7347 27 18.2222 27.5063 18.2222 28.125C18.2222 28.7437 18.7347 29.25 19.3611 29.25H27.9455L36.4658 23.0484C37.7328 22.1273 39.5123 22.3945 40.4448 23.6461ZM13.7806 27H13.7165C13.7378 27 13.7592 27 13.7806 27Z" fill="#FF682A"/>
</svg>
