<svg width="36" height="36" viewBox="0 0 36 36" fill="none" xmlns="http://www.w3.org/2000/svg">
<path d="M11.0109 27.0633L8.83829 24.8906C8.24063 24.293 8.02969 23.4281 8.29688 22.6266C8.50782 22.0008 8.78907 21.1851 9.12657 20.25H1.68751C1.08282 20.25 0.52032 19.9266 0.217976 19.3992C-0.0843679 18.8719 -0.0773366 18.225 0.232038 17.7047L3.92344 11.482C4.83751 9.94218 6.48985 8.99999 8.27579 8.99999H14.0625C14.2313 8.71874 14.4 8.45858 14.5688 8.20546C20.3274 -0.28829 28.9055 -0.56954 34.0242 0.372648C34.8399 0.520304 35.4727 1.16015 35.6274 1.97577C36.5695 7.10155 36.2813 15.6726 27.7945 21.4312C27.5484 21.6 27.2813 21.7687 27 21.9375V27.7242C27 29.5101 26.0578 31.1695 24.518 32.0766L18.2953 35.768C17.775 36.0773 17.1281 36.0844 16.6008 35.782C16.0734 35.4797 15.75 34.9242 15.75 34.3125V26.775C14.7586 27.1195 13.8938 27.4008 13.2399 27.6117C12.4524 27.8648 11.5945 27.6469 11.0039 27.0633H11.0109ZM27 11.8125C27.7459 11.8125 28.4613 11.5162 28.9887 10.9887C29.5162 10.4613 29.8125 9.74591 29.8125 8.99999C29.8125 8.25407 29.5162 7.5387 28.9887 7.01125C28.4613 6.48381 27.7459 6.18749 27 6.18749C26.2541 6.18749 25.5387 6.48381 25.0113 7.01125C24.4838 7.5387 24.1875 8.25407 24.1875 8.99999C24.1875 9.74591 24.4838 10.4613 25.0113 10.9887C25.5387 11.5162 26.2541 11.8125 27 11.8125Z" fill="#FF682A"/>
</svg>
