<svg width="14" height="14" viewBox="0 0 14 14" fill="none" xmlns="http://www.w3.org/2000/svg">
<path d="M0.413849 11.6088C-0.13277 12.1554 -0.13277 13.0431 0.413849 13.5898C0.960468 14.1364 1.84818 14.1364 2.39479 13.5898L6.99951 8.98067L11.609 13.5858C12.1557 14.1324 13.0429 14.1324 13.5895 13.5858C14.1362 13.0392 14.1362 12.1515 13.5895 11.6049L8.98046 7.00016L13.5852 2.39107C14.1318 1.84445 14.1318 0.956742 13.5852 0.410123C13.0386 -0.136496 12.1508 -0.136496 11.6042 0.410123L6.99951 5.01921L2.39042 0.414495C1.8438 -0.132124 0.956095 -0.132124 0.409476 0.414495C-0.137143 0.961114 -0.137143 1.84882 0.409476 2.39544L5.01857 7.00016L0.413849 11.6092V11.6088Z" fill="#4C4A4B"/>
</svg>
