<svg width="20" height="20" viewBox="0 0 20 20" fill="none" xmlns="http://www.w3.org/2000/svg">
<path d="M10.0027 4.87259C7.16497 4.87259 4.87607 7.162 4.87607 10.0003C4.87607 12.8387 7.16497 15.1281 10.0027 15.1281C12.8404 15.1281 15.1293 12.8387 15.1293 10.0003C15.1293 7.162 12.8404 4.87259 10.0027 4.87259ZM10.0027 13.334C8.16888 13.334 6.66972 11.839 6.66972 10.0003C6.66972 8.16166 8.16442 6.66663 10.0027 6.66663C11.8409 6.66663 13.3356 8.16166 13.3356 10.0003C13.3356 11.839 11.8365 13.334 10.0027 13.334ZM16.5343 4.66284C16.5343 5.32779 15.9989 5.85886 15.3385 5.85886C14.6782 5.85886 14.1428 5.32333 14.1428 4.66284C14.1428 4.00234 14.6782 3.46681 15.3385 3.46681C15.9989 3.46681 16.5343 4.00234 16.5343 4.66284ZM19.9297 5.87672C19.8539 4.27457 19.488 2.85541 18.3146 1.68615C17.1456 0.516903 15.7267 0.150508 14.1249 0.0706237C12.4741 -0.0235412 7.52638 -0.0235412 5.87552 0.0706237C4.27819 0.146491 2.85934 0.51244 1.68589 1.68169C0.512437 2.85094 0.150586 4.27011 0.0702733 5.87181C-0.0234244 7.52304 -0.0234244 12.4723 0.0702733 14.1235C0.146124 15.7257 0.511991 17.1448 1.68544 18.3141C2.8589 19.4833 4.27328 19.8493 5.87507 19.9296C7.52593 20.0233 12.4741 20.0233 14.1249 19.9296C15.7267 19.8537 17.1456 19.4878 18.3146 18.3141C19.4835 17.1448 19.8494 15.7257 19.9297 14.1235C20.0234 12.4723 20.0234 7.5275 19.9297 5.87627V5.87672ZM17.797 15.8957C17.449 16.7704 16.7752 17.4443 15.8963 17.7968C14.58 18.319 11.4568 18.1985 10.0022 18.1985C8.54769 18.1985 5.41997 18.3145 4.1082 17.7968C3.23369 17.4487 2.55996 16.7749 2.20747 15.8957C1.68544 14.5792 1.80591 11.4552 1.80591 10.0003C1.80591 8.54547 1.68991 5.41705 2.20747 4.10499C2.55549 3.23028 3.22922 2.5564 4.1082 2.20384C5.42443 1.68169 8.54769 1.80219 10.0022 1.80219C11.4568 1.80219 14.5845 1.68615 15.8963 2.20384C16.7708 2.55194 17.4445 3.22582 17.797 4.10499C18.319 5.42151 18.1985 8.54547 18.1985 10.0003C18.1985 11.4552 18.319 14.5836 17.797 15.8957Z" fill="#FF682A"/>
</svg>
