<svg width="21" height="17" viewBox="0 0 21 17" fill="none" xmlns="http://www.w3.org/2000/svg">
<path d="M2.625 2.59375C2.26406 2.59375 1.96875 2.88906 1.96875 3.25V4.15645L9.04395 9.96426C9.89297 10.6615 11.1111 10.6615 11.9602 9.96426L19.0312 4.15645V3.25C19.0312 2.88906 18.7359 2.59375 18.375 2.59375H2.625ZM1.96875 6.70352V13.75C1.96875 14.1109 2.26406 14.4062 2.625 14.4062H18.375C18.7359 14.4062 19.0312 14.1109 19.0312 13.75V6.70352L13.207 11.4859C11.632 12.7779 9.36387 12.7779 7.79297 11.4859L1.96875 6.70352ZM0 3.25C0 1.80215 1.17715 0.625 2.625 0.625H18.375C19.8229 0.625 21 1.80215 21 3.25V13.75C21 15.1979 19.8229 16.375 18.375 16.375H2.625C1.17715 16.375 0 15.1979 0 13.75V3.25Z" fill="#FF682A"/>
</svg>
