<svg width="23" height="23" viewBox="0 0 23 23" fill="none" xmlns="http://www.w3.org/2000/svg">
<path d="M2.875 6.46875C3.44687 6.46875 3.99532 6.24157 4.3997 5.8372C4.80407 5.43282 5.03125 4.88437 5.03125 4.3125C5.03125 3.74063 4.80407 3.19218 4.3997 2.7878C3.99532 2.38343 3.44687 2.15625 2.875 2.15625C2.30313 2.15625 1.75468 2.38343 1.3503 2.7878C0.945926 3.19218 0.71875 3.74063 0.71875 4.3125C0.71875 4.88437 0.945926 5.43282 1.3503 5.8372C1.75468 6.24157 2.30313 6.46875 2.875 6.46875ZM8.625 2.875C7.82988 2.875 7.1875 3.51738 7.1875 4.3125C7.1875 5.10762 7.82988 5.75 8.625 5.75H21.5625C22.3576 5.75 23 5.10762 23 4.3125C23 3.51738 22.3576 2.875 21.5625 2.875H8.625ZM8.625 10.0625C7.82988 10.0625 7.1875 10.7049 7.1875 11.5C7.1875 12.2951 7.82988 12.9375 8.625 12.9375H21.5625C22.3576 12.9375 23 12.2951 23 11.5C23 10.7049 22.3576 10.0625 21.5625 10.0625H8.625ZM8.625 17.25C7.82988 17.25 7.1875 17.8924 7.1875 18.6875C7.1875 19.4826 7.82988 20.125 8.625 20.125H21.5625C22.3576 20.125 23 19.4826 23 18.6875C23 17.8924 22.3576 17.25 21.5625 17.25H8.625ZM2.875 20.8438C3.44687 20.8438 3.99532 20.6166 4.3997 20.2122C4.80407 19.8078 5.03125 19.2594 5.03125 18.6875C5.03125 18.1156 4.80407 17.5672 4.3997 17.1628C3.99532 16.7584 3.44687 16.5312 2.875 16.5312C2.30313 16.5312 1.75468 16.7584 1.3503 17.1628C0.945926 17.5672 0.71875 18.1156 0.71875 18.6875C0.71875 19.2594 0.945926 19.8078 1.3503 20.2122C1.75468 20.6166 2.30313 20.8438 2.875 20.8438ZM5.03125 11.5C5.03125 11.2168 4.97548 10.9364 4.86712 10.6748C4.75875 10.4132 4.59993 10.1755 4.3997 9.9753C4.19947 9.77507 3.96177 9.61625 3.70016 9.50788C3.43855 9.39952 3.15816 9.34375 2.875 9.34375C2.59184 9.34375 2.31145 9.39952 2.04984 9.50788C1.78823 9.61625 1.55053 9.77507 1.3503 9.9753C1.15007 10.1755 0.991246 10.4132 0.882885 10.6748C0.774523 10.9364 0.71875 11.2168 0.71875 11.5C0.71875 11.7832 0.774523 12.0636 0.882885 12.3252C0.991246 12.5868 1.15007 12.8245 1.3503 13.0247C1.55053 13.2249 1.78823 13.3838 2.04984 13.4921C2.31145 13.6005 2.59184 13.6562 2.875 13.6562C3.15816 13.6562 3.43855 13.6005 3.70016 13.4921C3.96177 13.3838 4.19947 13.2249 4.3997 13.0247C4.59993 12.8245 4.75875 12.5868 4.86712 12.3252C4.97548 12.0636 5.03125 11.7832 5.03125 11.5Z" fill="#4C4A4B"/>
</svg>
