<svg width="20" height="22" viewBox="0 0 20 22" fill="none" xmlns="http://www.w3.org/2000/svg">
<g clip-path="url(#clip0_6_599)">
<path d="M10 11C8.48448 11 7.03103 10.4205 5.95939 9.38909C4.88775 8.35764 4.28571 6.95869 4.28571 5.5C4.28571 4.04131 4.88775 2.64236 5.95939 1.61091C7.03103 0.579463 8.48448 0 10 0C11.5155 0 12.969 0.579463 14.0406 1.61091C15.1122 2.64236 15.7143 4.04131 15.7143 5.5C15.7143 6.95869 15.1122 8.35764 14.0406 9.38909C12.969 10.4205 11.5155 11 10 11ZM9.33482 15.4344L8.50446 14.1023C8.21875 13.6426 8.5625 13.0625 9.11607 13.0625H10H10.8795C11.433 13.0625 11.7768 13.6469 11.4911 14.1023L10.6607 15.4344L12.1518 20.7582L13.7589 14.4461C13.8482 14.098 14.1964 13.8703 14.558 13.9605C17.6875 14.7168 20 17.441 20 20.6809C20 21.4113 19.3839 22 18.6295 22H12.7455C12.6518 22 12.567 21.9828 12.4866 21.9527L12.5 22H7.5L7.51339 21.9527C7.43304 21.9828 7.34375 22 7.25446 22H1.37054C0.616072 22 0 21.407 0 20.6809C0 17.4367 2.31696 14.7125 5.44196 13.9605C5.80357 13.8746 6.15179 14.1023 6.24107 14.4461L7.84821 20.7582L9.33929 15.4344H9.33482Z" fill="#4C4A4B"/>
</g>
<defs>
<clipPath id="clip0_6_599">
<rect width="20" height="22" fill="white"/>
</clipPath>
</defs>
</svg>
