<svg width="19" height="22" viewBox="0 0 19 22" fill="none" xmlns="http://www.w3.org/2000/svg">
<g clip-path="url(#clip0_6_607)">
<path d="M1.35714 0C2.10781 0 2.71429 0.614453 2.71429 1.375V2.0625L5.64062 1.32344C7.25647 0.915234 8.96138 1.1043 10.4542 1.86055C12.4179 2.85742 14.7292 2.85742 16.6929 1.86055L17.1 1.6543C17.9737 1.20742 19 1.85195 19 2.84023V14.8586C19 15.4301 18.648 15.9457 18.1179 16.1477L16.6462 16.7062C14.6868 17.4496 12.5069 17.3336 10.6366 16.3883C9.02924 15.5719 7.18862 15.3699 5.44129 15.8125L2.71429 16.5V20.625C2.71429 21.3855 2.10781 22 1.35714 22C0.606473 22 0 21.3855 0 20.625V17.1875V14.3516V2.75V1.375C0 0.614453 0.606473 0 1.35714 0ZM2.71429 8.03945L5.42857 7.44219V10.2566L2.71429 10.8539V13.6641L4.78393 13.1398C5.00022 13.084 5.21228 13.0367 5.42857 12.998V10.2566L7.07835 9.8957C7.43036 9.81836 7.78661 9.78828 8.14286 9.80547V7.05547C8.71964 7.07266 9.29643 7.16719 9.85625 7.33047L10.8571 7.62695V10.493L9.08862 9.96445C8.77902 9.87422 8.46094 9.81836 8.14286 9.80117V12.8691C9.06741 12.9508 9.97924 13.157 10.8571 13.4879V10.493L11.8199 10.7809C12.3924 10.9527 12.9777 11.0559 13.5714 11.0988V8.33594C13.2406 8.30156 12.9098 8.23711 12.5875 8.14258L10.8571 7.62695V4.96289C10.3058 4.79961 9.76295 4.58477 9.23705 4.31836C8.88929 4.14219 8.52031 4.01758 8.14286 3.94023V7.05117C7.59152 7.03398 7.04018 7.08555 6.50156 7.20586L5.42857 7.44219V4.21094L2.71429 4.89844V8.03945ZM13.5714 14.4246C14.2839 14.4891 15.0092 14.3945 15.692 14.1324L16.2857 13.909V10.8238L15.9507 10.9012C15.1703 11.0859 14.3687 11.1461 13.5714 11.0945V14.4203V14.4246ZM16.2857 8.00508V4.95859C15.3993 5.2207 14.4875 5.34961 13.5714 5.34961V8.33594C14.1609 8.39609 14.7589 8.35742 15.34 8.22422L16.2857 8.00078V8.00508Z" fill="#4C4A4B"/>
</g>
<defs>
<clipPath id="clip0_6_607">
<rect width="19" height="22" fill="white"/>
</clipPath>
</defs>
</svg>
