<svg width="22" height="20" viewBox="0 0 22 20" fill="none" xmlns="http://www.w3.org/2000/svg">
<g clip-path="url(#clip0_6_603)">
<path d="M2.44444 0C1.09618 0 0 1.12109 0 2.5V17.5C0 18.8789 1.09618 20 2.44444 20H12.2222C13.5705 20 14.6667 18.8789 14.6667 17.5V16.7461C14.5635 16.7891 14.4604 16.8242 14.3535 16.8516L12.058 17.4375C11.9434 17.4648 11.8288 17.4844 11.7142 17.4922C11.6799 17.4961 11.6455 17.5 11.6111 17.5H9.16667C8.93368 17.5 8.72361 17.3672 8.62049 17.1562L8.28437 16.4648C8.21944 16.332 8.08958 16.25 7.94826 16.25C7.80694 16.25 7.67326 16.332 7.61215 16.4648L7.27604 17.1562C7.16528 17.3867 6.92465 17.5234 6.67639 17.5C6.42812 17.4766 6.21424 17.3008 6.14549 17.0586L5.5 14.8828L5.12569 16.1641C4.89271 16.957 4.17847 17.5 3.36875 17.5H3.05556C2.71944 17.5 2.44444 17.2188 2.44444 16.875C2.44444 16.5312 2.71944 16.25 3.05556 16.25H3.36875C3.63993 16.25 3.87674 16.0703 3.95312 15.8047L4.52222 13.8711C4.65208 13.4297 5.04931 13.125 5.5 13.125C5.95069 13.125 6.34792 13.4297 6.47778 13.8711L6.92083 15.3789C7.20347 15.1367 7.5625 15 7.94444 15C8.55174 15 9.10556 15.3516 9.37674 15.9062L9.54479 16.25H9.88472C9.76632 15.9062 9.7434 15.5312 9.83125 15.1641L10.4042 12.8164C10.5111 12.375 10.7326 11.9766 11.0458 11.6562L14.6667 7.95312V6.25H9.77778C9.10174 6.25 8.55556 5.69141 8.55556 5V0H2.44444ZM9.77778 0V5H14.6667L9.77778 0ZM20.9993 5.45703C20.4035 4.84766 19.4372 4.84766 18.8375 5.45703L17.7146 6.60547L20.4264 9.37891L21.5493 8.23047C22.1451 7.62109 22.1451 6.63281 21.5493 6.01953L20.9993 5.45703ZM11.9128 12.5391C11.7562 12.6992 11.6455 12.8984 11.592 13.1211L11.0191 15.4688C10.9656 15.6836 11.0267 15.9062 11.1795 16.0625C11.3323 16.2188 11.55 16.2812 11.7601 16.2266L14.0556 15.6406C14.2694 15.5859 14.4681 15.4727 14.6247 15.3125L19.5594 10.2617L16.8476 7.48828L11.9128 12.5391Z" fill="#4C4A4B"/>
</g>
<defs>
<clipPath id="clip0_6_603">
<rect width="22" height="20" fill="white"/>
</clipPath>
</defs>
</svg>
