<svg width="22" height="22" viewBox="0 0 22 22" fill="none" xmlns="http://www.w3.org/2000/svg">
<g clip-path="url(#clip0_6_595)">
<path d="M6.53556 1.64134C6.96095 2.02376 6.99532 2.67259 6.6129 3.09798L3.51915 6.53548C3.33009 6.74603 3.06368 6.87064 2.78009 6.87493C2.4965 6.87923 2.22579 6.77181 2.02384 6.57415L0.300793 4.8554C-0.0988159 4.4515 -0.0988159 3.79837 0.300793 3.39446C0.700403 2.99056 1.35782 2.99056 1.75743 3.39446L2.70704 4.34407L5.07462 1.71439C5.45704 1.289 6.10587 1.25462 6.53126 1.63704L6.53556 1.64134ZM6.53556 8.51634C6.96095 8.89876 6.99532 9.54759 6.6129 9.97298L3.51915 13.4105C3.33009 13.621 3.06368 13.7456 2.78009 13.7499C2.4965 13.7542 2.22579 13.6468 2.02384 13.4492L0.300793 11.7304C-0.103113 11.3265 -0.103113 10.6734 0.300793 10.2738C0.7047 9.87415 1.35782 9.86986 1.75743 10.2738L2.70704 11.2234L5.07462 8.59368C5.45704 8.16829 6.10587 8.13392 6.53126 8.51634H6.53556ZM9.62501 4.12493C9.62501 3.36439 10.2395 2.74993 11 2.74993H20.625C21.3856 2.74993 22 3.36439 22 4.12493C22 4.88548 21.3856 5.49993 20.625 5.49993H11C10.2395 5.49993 9.62501 4.88548 9.62501 4.12493ZM9.62501 10.9999C9.62501 10.2394 10.2395 9.62493 11 9.62493H20.625C21.3856 9.62493 22 10.2394 22 10.9999C22 11.7605 21.3856 12.3749 20.625 12.3749H11C10.2395 12.3749 9.62501 11.7605 9.62501 10.9999ZM6.87501 17.8749C6.87501 17.1144 7.48947 16.4999 8.25001 16.4999H20.625C21.3856 16.4999 22 17.1144 22 17.8749C22 18.6355 21.3856 19.2499 20.625 19.2499H8.25001C7.48947 19.2499 6.87501 18.6355 6.87501 17.8749ZM2.06251 15.8124C2.60952 15.8124 3.13413 16.0297 3.52092 16.4165C3.90771 16.8033 4.12501 17.3279 4.12501 17.8749C4.12501 18.4219 3.90771 18.9465 3.52092 19.3333C3.13413 19.7201 2.60952 19.9374 2.06251 19.9374C1.5155 19.9374 0.990898 19.7201 0.604104 19.3333C0.217311 18.9465 1.21947e-05 18.4219 1.21947e-05 17.8749C1.21947e-05 17.3279 0.217311 16.8033 0.604104 16.4165C0.990898 16.0297 1.5155 15.8124 2.06251 15.8124Z" fill="#4C4A4B"/>
</g>
<defs>
<clipPath id="clip0_6_595">
<rect width="22" height="22" fill="white"/>
</clipPath>
</defs>
</svg>
