<svg width="16" height="21" viewBox="0 0 16 21" fill="none" xmlns="http://www.w3.org/2000/svg">
<g clip-path="url(#clip0_6_601)">
<path d="M2.66667 0C1.19583 0 0 1.17715 0 2.625V18.375C0 19.8229 1.19583 21 2.66667 21H13.3333C14.8042 21 16 19.8229 16 18.375V2.625C16 1.17715 14.8042 0 13.3333 0H2.66667ZM4 2.625H12C12.7375 2.625 13.3333 3.21152 13.3333 3.9375V5.25C13.3333 5.97598 12.7375 6.5625 12 6.5625H4C3.2625 6.5625 2.66667 5.97598 2.66667 5.25V3.9375C2.66667 3.21152 3.2625 2.625 4 2.625ZM5.33333 9.1875C5.33333 9.5356 5.19286 9.86944 4.94281 10.1156C4.69276 10.3617 4.35362 10.5 4 10.5C3.64638 10.5 3.30724 10.3617 3.05719 10.1156C2.80714 9.86944 2.66667 9.5356 2.66667 9.1875C2.66667 8.8394 2.80714 8.50556 3.05719 8.25942C3.30724 8.01328 3.64638 7.875 4 7.875C4.35362 7.875 4.69276 8.01328 4.94281 8.25942C5.19286 8.50556 5.33333 8.8394 5.33333 9.1875ZM4 14.4375C3.64638 14.4375 3.30724 14.2992 3.05719 14.0531C2.80714 13.8069 2.66667 13.4731 2.66667 13.125C2.66667 12.7769 2.80714 12.4431 3.05719 12.1969C3.30724 11.9508 3.64638 11.8125 4 11.8125C4.35362 11.8125 4.69276 11.9508 4.94281 12.1969C5.19286 12.4431 5.33333 12.7769 5.33333 13.125C5.33333 13.4731 5.19286 13.8069 4.94281 14.0531C4.69276 14.2992 4.35362 14.4375 4 14.4375ZM2.66667 17.0625C2.66667 16.3365 3.2625 15.75 4 15.75H8C8.7375 15.75 9.33333 16.3365 9.33333 17.0625C9.33333 17.7885 8.7375 18.375 8 18.375H4C3.2625 18.375 2.66667 17.7885 2.66667 17.0625ZM8 10.5C7.64638 10.5 7.30724 10.3617 7.05719 10.1156C6.80714 9.86944 6.66667 9.5356 6.66667 9.1875C6.66667 8.8394 6.80714 8.50556 7.05719 8.25942C7.30724 8.01328 7.64638 7.875 8 7.875C8.35362 7.875 8.69276 8.01328 8.94281 8.25942C9.19286 8.50556 9.33333 8.8394 9.33333 9.1875C9.33333 9.5356 9.19286 9.86944 8.94281 10.1156C8.69276 10.3617 8.35362 10.5 8 10.5ZM9.33333 13.125C9.33333 13.4731 9.19286 13.8069 8.94281 14.0531C8.69276 14.2992 8.35362 14.4375 8 14.4375C7.64638 14.4375 7.30724 14.2992 7.05719 14.0531C6.80714 13.8069 6.66667 13.4731 6.66667 13.125C6.66667 12.7769 6.80714 12.4431 7.05719 12.1969C7.30724 11.9508 7.64638 11.8125 8 11.8125C8.35362 11.8125 8.69276 11.9508 8.94281 12.1969C9.19286 12.4431 9.33333 12.7769 9.33333 13.125ZM12 10.5C11.6464 10.5 11.3072 10.3617 11.0572 10.1156C10.8071 9.86944 10.6667 9.5356 10.6667 9.1875C10.6667 8.8394 10.8071 8.50556 11.0572 8.25942C11.3072 8.01328 11.6464 7.875 12 7.875C12.3536 7.875 12.6928 8.01328 12.9428 8.25942C13.1929 8.50556 13.3333 8.8394 13.3333 9.1875C13.3333 9.5356 13.1929 9.86944 12.9428 10.1156C12.6928 10.3617 12.3536 10.5 12 10.5ZM13.3333 13.125C13.3333 13.4731 13.1929 13.8069 12.9428 14.0531C12.6928 14.2992 12.3536 14.4375 12 14.4375C11.6464 14.4375 11.3072 14.2992 11.0572 14.0531C10.8071 13.8069 10.6667 13.4731 10.6667 13.125C10.6667 12.7769 10.8071 12.4431 11.0572 12.1969C11.3072 11.9508 11.6464 11.8125 12 11.8125C12.3536 11.8125 12.6928 11.9508 12.9428 12.1969C13.1929 12.4431 13.3333 12.7769 13.3333 13.125ZM12 18.375C11.6464 18.375 11.3072 18.2367 11.0572 17.9906C10.8071 17.7444 10.6667 17.4106 10.6667 17.0625C10.6667 16.7144 10.8071 16.3806 11.0572 16.1344C11.3072 15.8883 11.6464 15.75 12 15.75C12.3536 15.75 12.6928 15.8883 12.9428 16.1344C13.1929 16.3806 13.3333 16.7144 13.3333 17.0625C13.3333 17.4106 13.1929 17.7444 12.9428 17.9906C12.6928 18.2367 12.3536 18.375 12 18.375Z" fill="#4C4A4B"/>
</g>
<defs>
<clipPath id="clip0_6_601">
<rect width="16" height="21" fill="white"/>
</clipPath>
</defs>
</svg>
