<svg width="20" height="20" viewBox="0 0 20 20" fill="none" xmlns="http://www.w3.org/2000/svg">
<g clip-path="url(#clip0_6_605)">
<path d="M9.40625 0.187878C9.77734 0.414441 10 0.816784 10 1.25038V4.06288H13.4766C13.6172 3.52382 14.1055 3.12538 14.6875 3.12538H18.125C19.1602 3.12538 20 3.96522 20 5.00038C20 6.03553 19.1602 6.87538 18.125 6.87538H14.6875C14.1055 6.87538 13.6172 6.47694 13.4766 5.93788H10V8.75038C10 9.18397 9.77734 9.58632 9.40625 9.81288C9.03516 10.0394 8.57812 10.0629 8.19141 9.86757L0.691406 6.11757C0.265625 5.90663 0 5.47303 0 5.00038C0 4.52772 0.265625 4.09413 0.691406 3.88319L8.19141 0.133191C8.57812 -0.0621218 9.03906 -0.0386843 9.40625 0.187878ZM11.25 10.0004C11.25 9.30897 11.8086 8.75038 12.5 8.75038H18.75C19.4414 8.75038 20 9.30897 20 10.0004V12.5004C20 13.1918 19.4414 13.7504 18.75 13.7504H12.5C11.8086 13.7504 11.25 13.1918 11.25 12.5004V10.0004ZM1.25 15.0004H5C5.69141 15.0004 6.25 15.559 6.25 16.2504V18.7504C6.25 19.4418 5.69141 20.0004 5 20.0004H1.25C0.558594 20.0004 0 19.4418 0 18.7504V16.2504C0 15.559 0.558594 15.0004 1.25 15.0004ZM8.75 15.0004H18.75C19.4414 15.0004 20 15.559 20 16.2504V18.7504C20 19.4418 19.4414 20.0004 18.75 20.0004H8.75C8.05859 20.0004 7.5 19.4418 7.5 18.7504V16.2504C7.5 15.559 8.05859 15.0004 8.75 15.0004Z" fill="#4C4A4B"/>
</g>
<defs>
<clipPath id="clip0_6_605">
<rect width="20" height="20" fill="white"/>
</clipPath>
</defs>
</svg>
