<svg width="18" height="18" viewBox="0 0 18 18" fill="none" xmlns="http://www.w3.org/2000/svg">
<path d="M5.79678 0.864858C5.52607 0.210952 4.8124 -0.137095 4.13037 0.0492332L1.03662 0.892983C0.424902 1.06173 -0.000488281 1.6172 -0.000488281 2.25001C-0.000488281 10.9477 7.05186 18 15.7495 18C16.3823 18 16.9378 17.5746 17.1065 16.9629L17.9503 13.8692C18.1366 13.1871 17.7886 12.4735 17.1347 12.2027L13.7597 10.7965C13.1866 10.5574 12.5222 10.7227 12.1319 11.2043L10.7116 12.9375C8.23662 11.7668 6.23271 9.76291 5.06201 7.28791L6.79522 5.87111C7.27686 5.47736 7.44209 4.81642 7.20303 4.24337L5.79678 0.868374V0.864858Z" fill="#FF682A"/>
</svg>
