<svg width="21" height="19" viewBox="0 0 21 19" fill="none" xmlns="http://www.w3.org/2000/svg">
<path d="M6.49772 1.29348C6.19428 0.639571 5.39432 0.291525 4.62983 0.477853L1.16202 1.3216C0.476336 1.49035 -0.000488273 2.04582 -0.00048827 2.67863C-0.000488224 11.3763 7.90455 18.4286 17.6538 18.4286C18.3632 18.4286 18.9858 18.0032 19.1749 17.3915L20.1207 14.2978C20.3296 13.6157 19.9394 12.9021 19.2065 12.6314L15.4234 11.2251C14.7811 10.9861 14.0363 11.1513 13.5989 11.6329L12.0068 13.3661C9.23256 12.1954 6.98636 10.1915 5.67411 7.71652L7.61688 6.29973C8.15675 5.90598 8.34196 5.24504 8.074 4.67199L6.49772 1.29699L6.49772 1.29348Z" fill="white"/>
</svg>
