<svg width="24" height="17" viewBox="0 0 24 17" fill="none" xmlns="http://www.w3.org/2000/svg">
<path d="M5.4 17C2.41875 17 0 14.5525 0 11.5357C0 9.15268 1.5075 7.12634 3.6075 6.3788C3.60375 6.27634 3.6 6.17388 3.6 6.07143C3.6 2.71696 6.285 0 9.6 0C11.8238 0 13.7625 1.22187 14.8013 3.0433C15.3713 2.65625 16.0613 2.42857 16.8 2.42857C18.7875 2.42857 20.4 4.06027 20.4 6.07143C20.4 6.53438 20.3137 6.97455 20.16 7.38438C22.35 7.83214 24 9.79397 24 12.1429C24 14.8257 21.8513 17 19.2 17H5.4ZM8.3625 8.76562C8.01 9.12232 8.01 9.69911 8.3625 10.052C8.715 10.4049 9.285 10.4087 9.63375 10.052L11.0963 8.5721V13.6607C11.0963 14.1654 11.4975 14.5714 11.9963 14.5714C12.495 14.5714 12.8963 14.1654 12.8963 13.6607V8.5721L14.3588 10.052C14.7113 10.4087 15.2812 10.4087 15.63 10.052C15.9788 9.69531 15.9825 9.11853 15.63 8.76562L12.63 5.72991C12.2775 5.37321 11.7075 5.37321 11.3588 5.72991L8.35875 8.76562H8.3625Z" fill="#4C4A4B"/>
</svg>
