<svg width="29" height="20" viewBox="0 0 29 20" fill="none" xmlns="http://www.w3.org/2000/svg">
<path d="M27.9046 3.12917C27.5768 1.8974 26.6109 0.927083 25.3851 0.597917C23.1625 0 14.2503 0 14.2503 0C14.2503 0 5.33804 0 3.11547 0.598437C1.88911 0.927604 0.923681 1.89792 0.595957 3.12969C0 5.36198 0 10.0203 0 10.0203C0 10.0203 0 14.6786 0.595435 16.9109C0.923159 18.1427 1.88911 19.0724 3.11494 19.4016C5.33752 20 14.2497 20 14.2497 20C14.2497 20 23.162 20 25.3845 19.4016C26.6109 19.0724 27.5763 18.1427 27.904 16.9109C28.4995 14.6781 28.4995 10.0203 28.4995 10.0203C28.4995 10.0203 28.4995 5.36198 27.904 3.12917H27.9046ZM11.3352 14.2495V5.79063L18.7841 10.0203L11.3352 14.2495Z" fill="#FF682A"/>
</svg>
